<?xml version="1.0" encoding="UTF-8"?>
<svg height="75" width="137" xmlns="http://www.w3.org/2000/svg" xmlns:xlink="http://www.w3.org/1999/xlink">
        <path fill-rule="evenodd" clip-rule="evenodd" fill="#000"
            d="M132.602,60.600 C130.819,63.823 128.308,66.320 125.073,68.096 C121.836,69.871 118.103,70.758 113.877,70.758 C109.583,70.758 105.818,69.871 102.583,68.096 C99.346,66.320 96.837,63.823 95.053,60.600 C93.270,57.380 92.378,53.665 92.378,49.456 L92.378,2.415 C92.378,1.956 92.510,1.594 92.774,1.330 C93.038,1.068 93.401,0.936 93.864,0.936 L109.518,0.936 C109.979,0.936 110.343,1.068 110.608,1.330 C110.871,1.594 111.004,1.956 111.004,2.415 L111.004,51.232 C111.004,52.350 111.267,53.238 111.797,53.894 C112.325,54.552 113.018,54.881 113.877,54.881 C114.735,54.881 115.413,54.552 115.908,53.894 C116.404,53.238 116.651,52.350 116.651,51.232 L116.651,2.415 C116.651,1.956 116.783,1.594 117.048,1.330 C117.311,1.068 117.675,0.936 118.137,0.936 L133.791,0.936 C134.253,0.936 134.616,1.068 134.881,1.330 C135.144,1.594 135.277,1.956 135.277,2.415 L135.277,49.456 C135.277,53.665 134.386,57.380 132.602,60.600 ZM77.227,67.504 C73.891,69.148 70.044,69.969 65.685,69.969 L46.167,69.969 C45.704,69.969 45.340,69.838 45.077,69.575 C44.813,69.313 44.681,68.951 44.681,68.490 L44.681,2.415 C44.681,1.956 44.813,1.594 45.077,1.330 C45.340,1.068 45.704,0.936 46.167,0.936 L65.685,0.936 C70.044,0.936 73.891,1.758 77.227,3.401 C80.561,5.045 83.154,7.363 85.004,10.354 C86.853,13.346 87.778,16.781 87.778,20.659 L87.778,50.245 C87.778,54.125 86.853,57.560 85.004,60.551 C83.154,63.544 80.561,65.861 77.227,67.504 ZM69.152,21.843 C69.152,20.331 68.789,19.115 68.063,18.194 C67.335,17.274 66.378,16.813 65.189,16.813 L63.901,16.813 C63.505,16.813 63.307,17.011 63.307,17.405 L63.307,53.500 C63.307,53.894 63.505,54.092 63.901,54.092 L65.288,53.993 C66.344,53.928 67.236,53.435 67.963,52.514 C68.689,51.594 69.086,50.410 69.152,48.963 L69.152,21.843 ZM38.666,69.969 L2.008,69.969 C1.545,69.969 1.182,69.838 0.918,69.575 C0.654,69.313 0.522,68.951 0.522,68.490 L0.522,2.415 C0.522,1.956 0.654,1.594 0.918,1.330 C1.182,1.068 1.545,0.936 2.008,0.936 L38.666,0.936 C39.127,0.936 39.491,1.068 39.756,1.330 C40.019,1.594 40.152,1.956 40.152,2.415 L40.152,15.334 C40.152,15.795 40.019,16.157 39.756,16.419 C39.491,16.682 39.127,16.813 38.666,16.813 L19.743,16.813 C19.346,16.813 19.148,17.011 19.148,17.405 L19.148,26.873 C19.148,27.267 19.346,27.464 19.743,27.464 L29.551,27.464 C30.012,27.464 30.376,27.597 30.641,27.859 C30.904,28.122 31.037,28.484 31.037,28.944 L31.037,41.863 C31.037,42.323 30.904,42.686 30.641,42.948 C30.376,43.211 30.012,43.342 29.551,43.342 L19.743,43.342 C19.346,43.342 19.148,43.539 19.148,43.934 L19.148,53.500 C19.148,53.894 19.346,54.092 19.743,54.092 L38.666,54.092 C39.127,54.092 39.491,54.224 39.756,54.486 C40.019,54.750 40.152,55.112 40.152,55.571 L40.152,68.490 C40.152,68.951 40.019,69.313 39.756,69.575 C39.491,69.838 39.127,69.969 38.666,69.969 Z"/>
    </svg>