<?xml version="1.0" encoding="UTF-8"?>
<svg width="256" height="75" xmlns="http://www.w3.org/2000/svg" xmlns:xlink="http://www.w3.org/1999/xlink">
 <path fill-rule="evenodd" clip-rule="evenodd" fill="#000"
         d="M236.187,23.742 L220.830,23.742 C220.367,23.742 220.004,23.609 219.740,23.342 C219.476,23.076 219.344,22.709 219.344,22.242 L219.344,19.643 C219.344,18.643 219.079,17.828 218.552,17.194 C218.022,16.561 217.329,16.244 216.471,16.244 C215.612,16.244 214.935,16.578 214.440,17.244 C213.945,17.911 213.697,18.810 213.697,19.943 C213.697,21.277 214.225,22.559 215.282,23.792 C216.338,25.026 218.452,26.808 221.623,29.140 C225.849,32.274 229.036,34.806 231.183,36.738 C233.329,38.672 235.013,40.854 236.236,43.286 C237.458,45.720 238.069,48.569 238.069,51.833 C238.069,57.899 236.120,62.730 232.224,66.329 C228.326,69.928 223.208,71.728 216.867,71.728 C212.640,71.728 208.941,70.928 205.771,69.328 C202.601,67.729 200.139,65.514 198.390,62.680 C196.639,59.848 195.764,56.599 195.764,52.933 L195.764,49.534 C195.764,49.069 195.896,48.702 196.161,48.434 C196.424,48.169 196.788,48.035 197.251,48.035 L212.706,48.035 C213.167,48.035 213.531,48.169 213.796,48.434 C214.059,48.702 214.192,49.069 214.192,49.534 L214.192,52.033 C214.192,53.100 214.455,53.967 214.985,54.633 C215.513,55.300 216.174,55.632 216.966,55.632 C217.759,55.632 218.418,55.332 218.948,54.733 C219.476,54.133 219.740,53.367 219.740,52.433 C219.740,51.301 219.211,50.184 218.155,49.084 C217.098,47.985 214.886,46.235 211.517,43.836 C208.214,41.504 205.489,39.371 203.344,37.438 C201.196,35.505 199.331,33.073 197.746,30.140 C196.161,27.208 195.368,23.842 195.368,20.043 C195.368,16.111 196.243,12.645 197.994,9.646 C199.743,6.647 202.220,4.315 205.424,2.648 C208.627,0.983 212.310,0.149 216.471,0.149 C220.697,0.149 224.412,0.983 227.617,2.648 C230.820,4.315 233.297,6.647 235.047,9.646 C236.797,12.645 237.673,16.111 237.673,20.043 L237.673,22.242 C237.673,22.709 237.540,23.076 237.277,23.342 C237.012,23.609 236.648,23.742 236.187,23.742 ZM191.165,70.928 L154.507,70.928 C154.044,70.928 153.680,70.795 153.417,70.528 C153.153,70.262 153.021,69.895 153.021,69.428 L153.021,2.448 C153.021,1.982 153.153,1.615 153.417,1.348 C153.680,1.083 154.044,0.948 154.507,0.948 L191.165,0.948 C191.626,0.948 191.990,1.083 192.254,1.348 C192.518,1.615 192.651,1.982 192.651,2.448 L192.651,15.544 C192.651,16.011 192.518,16.378 192.254,16.644 C191.990,16.911 191.626,17.044 191.165,17.044 L172.241,17.044 C171.845,17.044 171.647,17.244 171.647,17.643 L171.647,27.241 C171.647,27.641 171.845,27.840 172.241,27.840 L182.050,27.840 C182.511,27.840 182.875,27.975 183.140,28.240 C183.403,28.507 183.536,28.875 183.536,29.340 L183.536,42.436 C183.536,42.903 183.403,43.270 183.140,43.536 C182.875,43.803 182.511,43.936 182.050,43.936 L172.241,43.936 C171.845,43.936 171.647,44.136 171.647,44.536 L171.647,54.233 C171.647,54.633 171.845,54.833 172.241,54.833 L191.165,54.833 C191.626,54.833 191.990,54.967 192.254,55.232 C192.518,55.500 192.651,55.867 192.651,56.332 L192.651,69.428 C192.651,69.895 192.518,70.262 192.254,70.528 C191.990,70.795 191.626,70.928 191.165,70.928 ZM147.926,70.928 L132.272,70.928 C131.809,70.928 131.445,70.795 131.182,70.528 C130.917,70.262 130.786,69.895 130.786,69.428 L130.786,28.740 C130.786,28.475 130.702,28.308 130.538,28.240 C130.372,28.175 130.224,28.275 130.092,28.540 L124.445,38.137 L123.454,39.937 L123.355,39.937 L116.816,28.340 C116.683,28.075 116.535,27.958 116.370,27.990 C116.205,28.025 116.123,28.208 116.123,28.540 L116.123,69.428 C116.123,69.895 115.990,70.262 115.727,70.528 C115.462,70.795 115.098,70.928 114.637,70.928 L98.983,70.928 C98.520,70.928 98.156,70.795 97.893,70.528 C97.628,70.262 97.497,69.895 97.497,69.428 L97.497,2.448 C97.497,1.982 97.628,1.615 97.893,1.348 C98.156,1.083 98.520,0.948 98.983,0.948 L114.439,0.948 C115.296,0.948 115.891,1.315 116.222,2.048 L123.058,14.744 C123.190,14.944 123.338,15.044 123.504,15.044 C123.668,15.044 123.784,14.944 123.851,14.744 L130.687,2.048 C131.083,1.315 131.677,0.948 132.470,0.948 L147.926,0.948 C148.387,0.948 148.751,1.083 149.015,1.348 C149.279,1.615 149.412,1.982 149.412,2.448 L149.412,69.428 C149.412,69.895 149.279,70.262 149.015,70.528 C148.751,70.795 148.387,70.928 147.926,70.928 ZM93.520,70.928 L77.569,70.928 C76.578,70.928 76.049,70.462 75.984,69.528 L75.092,62.030 C75.092,61.831 75.008,61.681 74.844,61.581 C74.679,61.481 74.530,61.431 74.398,61.431 L65.680,61.431 C65.349,61.431 65.118,61.598 64.986,61.930 L63.797,69.528 C63.664,70.462 63.136,70.928 62.212,70.928 L46.658,70.928 C45.600,70.928 45.171,70.395 45.370,69.328 L59.438,2.248 C59.636,1.383 60.197,0.948 61.122,0.948 L79.154,0.948 C80.078,0.948 80.640,1.383 80.838,2.248 L94.907,69.328 L94.907,69.728 C94.907,70.528 94.444,70.928 93.520,70.928 ZM70.832,29.440 C70.765,29.107 70.649,28.940 70.485,28.940 C70.319,28.940 70.203,29.107 70.138,29.440 L67.463,46.435 C67.397,46.835 67.595,47.035 68.058,47.035 L72.516,47.035 C72.846,47.035 73.011,46.835 73.011,46.435 L70.832,29.440 ZM33.969,69.228 C30.700,70.895 26.918,71.728 22.625,71.728 C16.086,71.728 10.835,69.878 6.872,66.179 C2.909,62.480 0.928,57.532 0.928,51.334 L0.928,20.443 C0.928,14.244 2.909,9.313 6.872,5.647 C10.835,1.982 16.086,0.149 22.625,0.149 C26.918,0.149 30.700,0.983 33.969,2.648 C37.238,4.315 39.780,6.697 41.598,9.796 C43.414,12.895 44.322,16.511 44.322,20.643 L44.322,23.942 C44.322,24.409 44.189,24.776 43.926,25.041 C43.661,25.308 43.297,25.441 42.836,25.441 L27.182,25.441 C26.720,25.441 26.356,25.308 26.093,25.041 C25.828,24.776 25.696,24.409 25.696,23.942 L25.696,20.443 C25.696,19.177 25.415,18.160 24.854,17.394 C24.292,16.628 23.549,16.244 22.625,16.244 C21.699,16.244 20.956,16.628 20.396,17.394 C19.834,18.160 19.554,19.177 19.554,20.443 L19.554,51.434 C19.554,52.700 19.834,53.717 20.396,54.483 C20.956,55.250 21.699,55.632 22.625,55.632 C23.549,55.632 24.292,55.250 24.854,54.483 C25.415,53.717 25.696,52.700 25.696,51.434 L25.696,46.535 C25.696,46.135 25.498,45.935 25.102,45.935 L24.309,45.935 C23.846,45.935 23.483,45.802 23.219,45.535 C22.955,45.270 22.823,44.903 22.823,44.436 L22.823,32.939 C22.823,32.473 22.955,32.106 23.219,31.839 C23.483,31.574 23.846,31.439 24.309,31.439 L42.836,31.439 C43.297,31.439 43.661,31.574 43.926,31.839 C44.189,32.106 44.322,32.473 44.322,32.939 L44.322,51.334 C44.322,55.400 43.414,58.981 41.598,62.080 C39.780,65.180 37.238,67.563 33.969,69.228 Z"/>
   </svg>