<?xml version="1.0" encoding="UTF-8"?>
    <svg height="75" width="150" xmlns="http://www.w3.org/2000/svg" xmlns:xlink="http://www.w3.org/1999/xlink">
        <path fill-rule="evenodd" clip-rule="evenodd" fill="#000"
        d="M118.576,47.287 L134.230,47.780 C134.691,47.780 135.055,47.879 135.320,48.076 C135.583,48.273 135.716,48.504 135.716,48.766 L135.716,49.752 C135.716,53.961 134.807,57.659 132.992,60.847 C131.174,64.037 128.632,66.485 125.363,68.194 C122.093,69.905 118.312,70.758 114.019,70.758 C107.480,70.758 102.229,68.852 98.266,65.038 C94.303,61.226 92.322,56.130 92.322,49.752 L92.322,20.955 C92.322,14.579 94.286,9.515 98.216,5.768 C102.145,2.020 107.413,0.147 114.019,0.147 C120.558,0.147 125.809,2.020 129.772,5.768 C133.735,9.515 135.716,14.579 135.716,20.955 L135.716,21.448 C135.716,21.909 135.583,22.287 135.320,22.583 C135.055,22.878 134.691,23.026 134.230,23.026 L118.576,23.519 C117.586,23.519 117.090,23.060 117.090,22.139 L117.090,19.673 C117.090,18.556 116.808,17.669 116.248,17.011 C115.686,16.354 114.943,16.024 114.019,16.024 C113.093,16.024 112.350,16.354 111.790,17.011 C111.228,17.669 110.948,18.556 110.948,19.673 L110.948,51.330 C110.948,52.449 111.228,53.320 111.790,53.944 C112.350,54.569 113.093,54.881 114.019,54.881 C114.943,54.881 115.686,54.569 116.248,53.944 C116.808,53.320 117.090,52.449 117.090,51.330 L117.090,48.667 C117.090,47.748 117.586,47.287 118.576,47.287 ZM88.274,16.813 L76.583,16.813 C76.187,16.813 75.988,17.011 75.988,17.405 L75.988,68.490 C75.988,68.951 75.855,69.313 75.592,69.575 C75.327,69.838 74.964,69.969 74.502,69.969 L58.849,69.969 C58.386,69.969 58.022,69.838 57.759,69.575 C57.494,69.313 57.362,68.951 57.362,68.490 L57.362,17.405 C57.362,17.011 57.164,16.813 56.768,16.813 L45.374,16.813 C44.912,16.813 44.548,16.682 44.285,16.419 C44.020,16.157 43.888,15.795 43.888,15.334 L43.888,2.415 C43.888,1.956 44.020,1.594 44.285,1.330 C44.548,1.068 44.912,0.936 45.374,0.936 L88.274,0.936 C88.735,0.936 89.099,1.068 89.363,1.330 C89.627,1.594 89.760,1.956 89.760,2.415 L89.760,15.334 C89.760,15.795 89.627,16.157 89.363,16.419 C89.099,16.682 88.735,16.813 88.274,16.813 ZM38.666,69.969 L2.008,69.969 C1.545,69.969 1.182,69.838 0.918,69.575 C0.654,69.313 0.522,68.951 0.522,68.490 L0.522,2.415 C0.522,1.956 0.654,1.594 0.918,1.330 C1.182,1.068 1.545,0.936 2.008,0.936 L38.666,0.936 C39.127,0.936 39.491,1.068 39.756,1.330 C40.019,1.594 40.152,1.956 40.152,2.415 L40.152,15.334 C40.152,15.795 40.019,16.157 39.756,16.419 C39.491,16.682 39.127,16.813 38.666,16.813 L19.743,16.813 C19.346,16.813 19.148,17.011 19.148,17.405 L19.148,26.873 C19.148,27.267 19.346,27.464 19.743,27.464 L29.551,27.464 C30.012,27.464 30.376,27.597 30.641,27.859 C30.904,28.122 31.037,28.484 31.037,28.944 L31.037,41.863 C31.037,42.323 30.904,42.686 30.641,42.948 C30.376,43.211 30.012,43.342 29.551,43.342 L19.743,43.342 C19.346,43.342 19.148,43.539 19.148,43.934 L19.148,53.500 C19.148,53.894 19.346,54.092 19.743,54.092 L38.666,54.092 C39.127,54.092 39.491,54.224 39.756,54.486 C40.019,54.750 40.152,55.112 40.152,55.571 L40.152,68.490 C40.152,68.951 40.019,69.313 39.756,69.575 C39.491,69.838 39.127,69.969 38.666,69.969 Z"/>
    </svg>