<?xml version="1.0" encoding="UTF-8"?>
<svg height="75" width="250" xmlns="http://www.w3.org/2000/svg" xmlns:xlink="http://www.w3.org/1999/xlink">
        <path fill-rule="evenodd" clip-rule="evenodd" fill="#000"
        d="M245.160,68.786 C245.160,69.575 244.697,69.969 243.773,69.969 L227.624,69.969 C226.765,69.969 226.237,69.543 226.039,68.687 L219.995,43.934 C219.862,43.606 219.730,43.441 219.599,43.441 C219.334,43.441 219.203,43.638 219.203,44.032 L219.203,68.490 C219.203,68.951 219.069,69.313 218.806,69.575 C218.542,69.838 218.178,69.969 217.716,69.969 L202.063,69.969 C201.600,69.969 201.236,69.838 200.973,69.575 C200.708,69.313 200.577,68.951 200.577,68.490 L200.577,2.415 C200.577,1.956 200.708,1.594 200.973,1.330 C201.236,1.068 201.600,0.936 202.063,0.936 L224.354,0.936 C228.317,0.936 231.835,1.872 234.906,3.746 C237.977,5.620 240.370,8.218 242.089,11.537 C243.806,14.858 244.665,18.655 244.665,22.928 C244.665,26.544 244.036,29.782 242.782,32.642 C241.527,35.502 239.711,37.819 237.333,39.594 C237.068,39.792 236.969,40.055 237.036,40.383 L245.061,68.293 C245.126,68.425 245.160,68.589 245.160,68.786 ZM224.701,18.441 C223.810,17.356 222.604,16.813 221.085,16.813 L219.797,16.813 C219.401,16.813 219.203,17.011 219.203,17.405 L219.203,28.746 C219.203,29.141 219.401,29.338 219.797,29.338 L221.085,29.338 C222.537,29.338 223.726,28.796 224.652,27.711 C225.576,26.626 226.039,25.097 226.039,23.125 C226.039,21.088 225.593,19.525 224.701,18.441 ZM195.085,69.969 L179.134,69.969 C178.143,69.969 177.614,69.510 177.549,68.589 L176.657,61.192 C176.657,60.995 176.574,60.847 176.410,60.748 C176.244,60.650 176.095,60.600 175.964,60.600 L167.245,60.600 C166.914,60.600 166.683,60.765 166.552,61.094 L165.363,68.589 C165.230,69.510 164.702,69.969 163.778,69.969 L148.223,69.969 C147.166,69.969 146.737,69.444 146.935,68.391 L161.003,2.218 C161.202,1.364 161.762,0.936 162.688,0.936 L180.719,0.936 C181.643,0.936 182.205,1.364 182.404,2.218 L196.472,68.391 L196.472,68.786 C196.472,69.575 196.009,69.969 195.085,69.969 ZM172.397,29.042 C172.330,28.714 172.214,28.549 172.050,28.549 C171.885,28.549 171.769,28.714 171.703,29.042 L169.028,45.808 C168.962,46.202 169.160,46.399 169.623,46.399 L174.081,46.399 C174.411,46.399 174.577,46.202 174.577,45.808 L172.397,29.042 ZM142.802,69.969 L126.356,69.969 C125.497,69.969 124.902,69.575 124.572,68.786 L116.944,48.569 C116.877,48.241 116.761,48.076 116.597,48.076 C116.431,48.076 116.283,48.241 116.151,48.569 L115.359,50.541 C115.292,50.674 115.259,50.936 115.259,51.330 L115.259,68.490 C115.259,68.951 115.126,69.313 114.863,69.575 C114.598,69.838 114.235,69.969 113.773,69.969 L98.120,69.969 C97.657,69.969 97.293,69.838 97.030,69.575 C96.765,69.313 96.633,68.951 96.633,68.490 L96.633,2.415 C96.633,1.956 96.765,1.594 97.030,1.330 C97.293,1.068 97.657,0.936 98.120,0.936 L113.773,0.936 C114.235,0.936 114.598,1.068 114.863,1.330 C115.126,1.594 115.259,1.956 115.259,2.415 L115.259,21.942 C115.259,22.205 115.341,22.353 115.507,22.385 C115.671,22.419 115.820,22.304 115.953,22.040 L124.275,2.119 C124.605,1.330 125.199,0.936 126.059,0.936 L142.406,0.936 C142.934,0.936 143.330,1.100 143.595,1.429 C143.858,1.758 143.858,2.185 143.595,2.711 L129.625,31.804 C129.559,32.067 129.559,32.331 129.625,32.592 L143.991,68.293 C144.056,68.490 144.090,68.721 144.090,68.983 C144.090,69.641 143.660,69.969 142.802,69.969 ZM89.995,69.969 L74.342,69.969 C73.879,69.969 73.515,69.838 73.252,69.575 C72.987,69.313 72.856,68.951 72.856,68.490 L72.856,2.415 C72.856,1.956 72.987,1.594 73.252,1.330 C73.515,1.068 73.879,0.936 74.342,0.936 L89.995,0.936 C90.457,0.936 90.821,1.068 91.085,1.330 C91.348,1.594 91.482,1.956 91.482,2.415 L91.482,68.490 C91.482,68.951 91.348,69.313 91.085,69.575 C90.821,69.838 90.457,69.969 89.995,69.969 ZM56.112,68.687 C55.914,69.543 55.352,69.969 54.428,69.969 L40.756,69.969 C39.765,69.969 39.235,69.510 39.170,68.589 L33.009,36.932 C33.009,36.735 32.893,36.636 32.662,36.636 C32.430,36.636 32.316,36.735 32.316,36.932 L21.947,68.589 C21.881,69.510 21.353,69.969 20.362,69.969 L6.591,69.969 C5.665,69.969 5.105,69.543 4.906,68.687 L0.432,2.513 L0.432,2.119 C0.432,1.330 0.894,0.936 1.819,0.936 L17.968,0.936 C18.959,0.936 19.487,1.396 19.554,2.316 L18.922,32.395 C18.922,32.528 19.021,32.609 19.219,32.642 C19.418,32.676 19.517,32.592 19.517,32.395 L27.182,2.316 C27.247,1.396 27.777,0.936 28.768,0.936 L40.855,0.936 C41.845,0.936 42.373,1.396 42.440,2.316 L44.601,32.494 C44.601,32.626 44.716,32.708 44.948,32.740 C45.178,32.774 45.294,32.691 45.294,32.494 L50.168,2.316 C50.233,1.396 50.728,0.936 51.654,0.936 L67.407,0.936 C68.529,0.936 68.992,1.463 68.794,2.513 L56.112,68.687 Z"/>
    </svg>